# xmcd CD database file
#
# Track frame offsets:
#	150
#	25439
#	48632
#	72945
#	99303
#	119876
#	147048
#	174623
#	202926
#	229591
#	251969
#	277776
#	296237
#	321167
#	347751
#
# Disc length: 4677 seconds
#
# Revision: 0
# Processed by: cddbd v1.4PL0 Copyright (c) Steve Scherf et al.
# Submitted via: CDex 1.50
#
DISCID=ea12430f
DTITLE=Miles Davis - Volume 7 - Aebersold
DYEAR=1900
DGENRE=Jazz
TTITLE0=Four (slow)
TTITLE1=Tune Up (slow)
TTITLE2=Vierd Blues (slow)
TTITLE3=The Theme (slow)
TTITLE4=Solar (slow)
TTITLE5=Dig (slow)
TTITLE6=Milestones (old)
TTITLE7=Serpent's Tooth (slow)
TTITLE8=Four (fast)
TTITLE9=Tune Up (fast)
TTITLE10=The Theme (fast)
TTITLE11=Solar (fast)
TTITLE12=Dig (fast)
TTITLE13=Serpent's Tooth (fast)
TTITLE14=Tuning NOtes
EXTD=
EXTT0=
EXTT1=
EXTT2=
EXTT3=
EXTT4=
EXTT5=
EXTT6=
EXTT7=
EXTT8=
EXTT9=
EXTT10=
EXTT11=
EXTT12=
EXTT13=
EXTT14=
PLAYORDER=
